<svg width="34" height="36" viewBox="0 0 34 36" fill="none" xmlns="http://www.w3.org/2000/svg">
<path d="M16.841 35.31C12.101 35.31 8.39597 34.11 5.72596 31.71C3.05596 29.34 1.49596 25.965 1.04596 21.585C0.955965 20.715 0.910965 19.425 0.910965 17.715C0.910965 15.915 0.955965 14.64 1.04596 13.89C1.49596 9.63 3.05596 6.27 5.72596 3.81C8.42596 1.32 12.071 0.074999 16.661 0.074999C21.971 0.074999 25.961 1.275 28.631 3.675C31.301 6.045 32.756 9.45 32.996 13.89C33.056 15.09 33.086 16.02 33.086 16.68C33.086 18.03 33.056 19.065 32.996 19.785C32.876 21.945 32.276 23.595 31.196 24.735C30.146 25.875 28.706 26.445 26.876 26.445C25.586 26.445 24.536 26.175 23.726 25.635C22.916 25.095 22.301 24.51 21.881 23.88C21.371 24.72 20.681 25.44 19.811 26.04C18.971 26.61 17.756 26.895 16.166 26.895C13.916 26.895 12.131 26.1 10.811 24.51C9.52096 22.89 8.87596 20.625 8.87596 17.715C8.87596 14.805 9.52096 12.54 10.811 10.92C12.131 9.3 13.916 8.49 16.166 8.49C17.276 8.49 18.176 8.7 18.866 9.12C19.586 9.51 20.216 10.02 20.756 10.65V9.885C20.756 9.585 20.846 9.345 21.026 9.165C21.236 8.955 21.491 8.85 21.791 8.85H23.006C23.306 8.85 23.546 8.955 23.726 9.165C23.936 9.345 24.041 9.585 24.041 9.885V19.47C24.041 20.7 24.296 21.645 24.806 22.305C25.316 22.965 26.006 23.295 26.876 23.295C27.926 23.295 28.646 22.905 29.036 22.125C29.456 21.345 29.681 20.46 29.711 19.47C29.771 18.75 29.801 17.82 29.801 16.68C29.801 16.17 29.771 15.315 29.711 14.115C29.441 10.455 28.286 7.725 26.246 5.925C24.236 4.095 21.041 3.18 16.661 3.18C13.031 3.18 10.166 4.14 8.06596 6.06C5.99596 7.95 4.75096 10.635 4.33096 14.115C4.24096 14.865 4.19596 16.065 4.19596 17.715C4.19596 19.275 4.24096 20.49 4.33096 21.36C4.69096 24.81 5.93596 27.48 8.06596 29.37C10.196 31.23 13.121 32.16 16.841 32.16C18.791 32.16 20.396 31.995 21.656 31.665C22.946 31.365 23.876 31.035 24.446 30.675C25.046 30.315 25.736 29.835 26.516 29.235C26.576 29.205 26.711 29.1 26.921 28.92C27.131 28.77 27.386 28.695 27.686 28.695H29.486C29.756 28.695 29.981 28.785 30.161 28.965C30.371 29.145 30.476 29.385 30.476 29.685C30.476 29.925 30.386 30.135 30.206 30.315C28.826 31.815 27.071 33.015 24.941 33.915C22.841 34.845 20.141 35.31 16.841 35.31ZM16.436 23.745C17.966 23.745 19.061 23.235 19.721 22.215C20.411 21.165 20.756 19.665 20.756 17.715C20.756 15.765 20.411 14.265 19.721 13.215C19.061 12.165 17.966 11.64 16.436 11.64C14.966 11.64 13.886 12.18 13.196 13.26C12.506 14.31 12.161 15.795 12.161 17.715C12.161 19.485 12.506 20.94 13.196 22.08C13.916 23.19 14.996 23.745 16.436 23.745Z" fill="white"/>
</svg>
